# xmcd
#
# Track frame offsets:
#	150
#	18830
#	32141
#	54020
#	67801
#	85809
#	114390
#	154760
#	186329
#	206824
#	227012
#
# Disc length: 3301 seconds
#
# Revision: 1
# Processed by: cddbd v1.5.2PL0 Copyright (c) Steve Scherf et al.
# Submitted via: audiograbber 1.83.01
#
DISCID=820ce30b
DTITLE=Laurence Jones - Christina Skjølberg - Albert Castiglia - Blues Caravan 
DTITLE=2014 [live]
DYEAR=2014
DGENRE=BluesRock
TTITLE0=Laurence Jones - Christina Skjølberg - Albert Castiglia - Join Me On Th
TTITLE0=e Blues Caravan [live]
TTITLE1=Christina Skjølberg - Come And Get It [live]
TTITLE2=Christina Skjølberg - Close The Door [live]
TTITLE3=Christina Skjølberg - Hush [live]
TTITLE4=Laurence Jones - Wind Me Up [live]
TTITLE5=Laurence Jones - Fall From The Sky [live]
TTITLE6=Laurence Jones - All Along The Watchtower [live]
TTITLE7=Albert Castiglia - Fat Cat [live]
TTITLE8=Albert Castiglia - Put Some Stank On It [live] [CD only track]
TTITLE9=Albert Castiglia - Sway [live] [CD only track]
TTITLE10=Laurence Jones - Christina Skjølberg - Albert Castiglia - Sweet Home C
TTITLE10=hicago [live]
EXTD=
EXTT0=
EXTT1=
EXTT2=
EXTT3=
EXTT4=
EXTT5=
EXTT6=
EXTT7=
EXTT8=
EXTT9=
EXTT10=
PLAYORDER=
